<svg width="18" height="18" viewBox="0 0 18 18" fill="none" xmlns="http://www.w3.org/2000/svg">
<mask id="mask0_20_1719" style="mask-type:alpha" maskUnits="userSpaceOnUse" x="0" y="0" width="18" height="18">
<rect width="18" height="18" fill="#D9D9D9"/>
</mask>
<g mask="url(#mask0_20_1719)">
<path d="M9.00342 16.5034C7.96592 16.5034 6.99092 16.3064 6.07842 15.9124C5.16592 15.5189 4.37217 14.9847 3.69717 14.3097C3.02217 13.6347 2.48792 12.8409 2.09442 11.9284C1.70042 11.0159 1.50342 10.0409 1.50342 9.00342C1.50342 7.96592 1.70042 6.99092 2.09442 6.07842C2.48792 5.16592 3.02217 4.37217 3.69717 3.69717C4.37217 3.02217 5.16592 2.48767 6.07842 2.09367C6.99092 1.70017 7.96592 1.50342 9.00342 1.50342C10.0409 1.50342 11.0159 1.70017 11.9284 2.09367C12.8409 2.48767 13.6347 3.02217 14.3097 3.69717C14.9847 4.37217 15.5189 5.16592 15.9124 6.07842C16.3064 6.99092 16.5034 7.96592 16.5034 9.00342C16.5034 10.0409 16.3064 11.0159 15.9124 11.9284C15.5189 12.8409 14.9847 13.6347 14.3097 14.3097C13.6347 14.9847 12.8409 15.5189 11.9284 15.9124C11.0159 16.3064 10.0409 16.5034 9.00342 16.5034ZM9.00342 15.0034C10.6784 15.0034 12.0972 14.4222 13.2597 13.2597C14.4222 12.0972 15.0034 10.6784 15.0034 9.00342C15.0034 8.32842 14.8939 7.67842 14.6749 7.05342C14.4564 6.42842 14.1409 5.85342 13.7284 5.32842L5.32842 13.7284C5.85342 14.1409 6.42842 14.4564 7.05342 14.6749C7.67842 14.8939 8.32842 15.0034 9.00342 15.0034ZM4.27842 12.6784L12.6784 4.27842C12.1534 3.86592 11.5784 3.55042 10.9534 3.33192C10.3284 3.11292 9.67842 3.00342 9.00342 3.00342C7.32842 3.00342 5.90967 3.58467 4.74717 4.74717C3.58467 5.90967 3.00342 7.32842 3.00342 9.00342C3.00342 9.67842 3.11292 10.3284 3.33192 10.9534C3.55042 11.5784 3.86592 12.1534 4.27842 12.6784Z" fill="#005BAA"/>
</g>
</svg>
