<svg width="14" height="14" viewBox="0 0 14 14" fill="none" xmlns="http://www.w3.org/2000/svg">
<g clip-path="url(#clip0_20_1715)">
<path d="M12.5404 6.99782L13.7978 5.76722C14.1727 5.41238 13.9979 4.78178 13.5063 4.6642L11.7932 4.22697L12.2761 2.53125C12.4126 2.04349 11.9526 1.58343 11.465 1.71993L9.76989 2.20302L9.33283 0.489356C9.21717 0.00539887 8.57951 -0.171597 8.23019 0.197653L7 1.46482L5.76983 0.19768C5.42448 -0.167386 4.78417 -0.000124604 4.66719 0.489383L4.23013 2.20304L2.53496 1.71996C2.04723 1.58341 1.58747 2.04363 1.72391 2.53128L2.20683 4.227L0.493745 4.66423C0.00188577 4.78183 -0.17254 5.41254 0.202124 5.76722L1.45953 6.99782L0.202124 8.2284C-0.172704 8.58324 0.00207725 9.21384 0.493718 9.33142L2.2068 9.76865L1.72389 11.4644C1.58741 11.9521 2.04734 12.4122 2.53493 12.2757L4.23008 11.7926L4.66714 13.5063C4.78852 14.0142 5.42445 14.163 5.76978 13.798L7 12.5401L8.23017 13.798C8.57196 14.1668 9.21419 14.0027 9.3328 13.5063L9.76987 11.7926L11.465 12.2757C11.9527 12.4122 12.4125 11.952 12.2761 11.4644L11.7931 9.76865L13.5062 9.33142C13.9981 9.21379 14.1725 8.58311 13.7978 8.2284L12.5404 6.99782Z" fill="#005BAA"/>
</g>
<defs>
<clipPath id="clip0_20_1715">
<rect width="14" height="14" fill="white"/>
</clipPath>
</defs>
</svg>
