<svg width="20" height="20" viewBox="0 0 20 20" fill="none" xmlns="http://www.w3.org/2000/svg">
<mask id="mask0_20_1729" style="mask-type:alpha" maskUnits="userSpaceOnUse" x="0" y="0" width="20" height="20">
<rect width="20" height="20" fill="#D9D9D9"/>
</mask>
<g mask="url(#mask0_20_1729)">
<path d="M5.83343 17.5C5.3751 17.5 4.98288 17.3369 4.65677 17.0108C4.3301 16.6842 4.16677 16.2917 4.16677 15.8333V5H3.33344V3.33333H7.5001V2.5H12.5001V3.33333H16.6668V5H15.8334V15.8333C15.8334 16.2917 15.6704 16.6842 15.3443 17.0108C15.0176 17.3369 14.6251 17.5 14.1668 17.5H5.83343ZM14.1668 5H5.83343V15.8333H14.1668V5ZM7.5001 14.1667H9.16677V6.66667H7.5001V14.1667ZM10.8334 14.1667H12.5001V6.66667H10.8334V14.1667Z" fill="#005BAA"/>
</g>
</svg>
