<svg width="20" height="20" viewBox="0 0 20 20" fill="none" xmlns="http://www.w3.org/2000/svg">
<mask id="mask0_20_1724" style="mask-type:alpha" maskUnits="userSpaceOnUse" x="0" y="0" width="20" height="20">
<rect width="20" height="20" fill="#D9D9D9"/>
</mask>
<g mask="url(#mask0_20_1724)">
<path d="M4.16667 15.8335H5.33333L12.5208 8.64604L11.3542 7.47937L4.16667 14.6669V15.8335ZM16.0833 7.4377L12.5417 3.9377L13.7083 2.77104C14.0278 2.45159 14.4203 2.29187 14.8858 2.29187C15.3508 2.29187 15.7431 2.45159 16.0625 2.77104L17.2292 3.9377C17.5486 4.25715 17.7153 4.6427 17.7292 5.09437C17.7431 5.54548 17.5903 5.93076 17.2708 6.2502L16.0833 7.4377ZM14.875 8.66687L6.04167 17.5002H2.5V13.9585L11.3333 5.1252L14.875 8.66687Z" fill="#005BAA"/>
</g>
</svg>
