<svg width="14" height="18" viewBox="0 0 14 18" fill="none" xmlns="http://www.w3.org/2000/svg">
<path d="M13 16.375V12.325H1L1 16.375C1 16.5583 1.05833 16.7083 1.175 16.825C1.29167 16.9417 1.44167 17 1.625 17H12.375C12.5583 17 12.7083 16.9417 12.825 16.825C12.9417 16.7083 13 16.5583 13 16.375ZM13 11.325V6.675H1L1 11.325H13ZM13 5.675L13 1.625C13 1.44167 12.9417 1.29167 12.825 1.175C12.7083 1.05833 12.5583 1 12.375 1H1.625C1.44167 1 1.29167 1.05833 1.175 1.175C1.05833 1.29167 1 1.44167 1 1.625L1 5.675H13ZM14 16.375C14 16.8417 13.846 17.229 13.538 17.537C13.2293 17.8457 12.8417 18 12.375 18H1.625C1.15833 18 0.771 17.8457 0.463 17.537C0.154333 17.229 0 16.8417 0 16.375L0 1.625C0 1.15833 0.154333 0.770666 0.463 0.462C0.771 0.153999 1.15833 0 1.625 0H12.375C12.8417 0 13.2293 0.153999 13.538 0.462C13.846 0.770666 14 1.15833 14 1.625L14 16.375Z" fill="#828282"/>
</svg>
