<svg width="18" height="14" viewBox="0 0 18 14" fill="none" xmlns="http://www.w3.org/2000/svg">
<path d="M1.625 13H5.675V1H1.625C1.44167 1 1.29167 1.05833 1.175 1.175C1.05833 1.29167 1 1.44167 1 1.625V12.375C1 12.5583 1.05833 12.7083 1.175 12.825C1.29167 12.9417 1.44167 13 1.625 13ZM6.675 13H11.325V1H6.675V13ZM12.325 13H16.375C16.5583 13 16.7083 12.9417 16.825 12.825C16.9417 12.7083 17 12.5583 17 12.375V1.625C17 1.44167 16.9417 1.29167 16.825 1.175C16.7083 1.05833 16.5583 1 16.375 1H12.325V13ZM1.625 14C1.15833 14 0.771 13.846 0.463 13.538C0.154333 13.2293 0 12.8417 0 12.375V1.625C0 1.15833 0.154333 0.771 0.463 0.463C0.771 0.154333 1.15833 0 1.625 0H16.375C16.8417 0 17.2293 0.154333 17.538 0.463C17.846 0.771 18 1.15833 18 1.625V12.375C18 12.8417 17.846 13.2293 17.538 13.538C17.2293 13.846 16.8417 14 16.375 14H1.625Z" fill="#828282"/>
</svg>
